<?xml version="1.0" encoding="UTF-8" standalone="no"?>
<svg
   version="1.0"
   width="192pt"
   height="192pt"
   viewBox="0 0 192 192"
   preserveAspectRatio="xMidYMid"
   id="svg8"
   sodipodi:docname="65bdaca8-3b73-4791-ad1e-72258592cb86 - Copy.svg"
   inkscape:version="1.2.2 (732a01da63, 2022-12-09)"
   inkscape:export-filename="logo_swasthai_splash.png"
   inkscape:export-xdpi="13.5"
   inkscape:export-ydpi="13.5"
   xmlns:inkscape="http://www.inkscape.org/namespaces/inkscape"
   xmlns:sodipodi="http://sodipodi.sourceforge.net/DTD/sodipodi-0.dtd"
   xmlns="http://www.w3.org/2000/svg"
   xmlns:svg="http://www.w3.org/2000/svg">
  <defs
     id="defs12" />
  <sodipodi:namedview
     id="namedview10"
     pagecolor="#ffffff"
     bordercolor="#000000"
     borderopacity="0.25"
     inkscape:showpageshadow="2"
     inkscape:pageopacity="0.0"
     inkscape:pagecheckerboard="0"
     inkscape:deskcolor="#d1d1d1"
     inkscape:document-units="pt"
     showgrid="false"
     inkscape:zoom="2.9017326"
     inkscape:cx="146.29191"
     inkscape:cy="130.09469"
     inkscape:window-width="1920"
     inkscape:window-height="991"
     inkscape:window-x="-9"
     inkscape:window-y="-9"
     inkscape:window-maximized="1"
     inkscape:current-layer="svg8"
     showguides="true">
    <sodipodi:guide
       position="1024.8756,-348.35622"
       orientation="1,0"
       id="guide1570"
       inkscape:locked="false" />
    <sodipodi:guide
       position="515.13961,-24.142498"
       orientation="1,0"
       id="guide1572"
       inkscape:locked="false" />
    <sodipodi:guide
       position="435.88736,-326.74197"
       orientation="0,-1"
       id="guide1574"
       inkscape:locked="false" />
  </sodipodi:namedview>
  <g
     inkscape:groupmode="layer"
     id="layer1"
     inkscape:label="Layer 1"
     style="display:none">
    <rect
       style="fill:#347af0;fill-opacity:1;stroke:none;stroke-width:8.40525"
       id="rect1079"
       width="1154.561"
       height="1282.4454"
       x="-59.439182"
       y="-117.07718" />
  </g>
  <g
     transform="matrix(0.0205344,0,0,-0.0205344,-8.3665213,196.28627)"
     fill="#000000"
     stroke="none"
     id="g6"
     style="fill:#347af0;fill-opacity:1"
     inkscape:export-filename="..\Pictures\logos\medbuddy\cutoutActual.png"
     inkscape:export-xdpi="75.9375"
     inkscape:export-ydpi="75.9375">
    <path
       d="m 7891.9905,6003.5723 c 53.1851,-11.7474 144.3599,-43.4656 203.8767,-70.4849 445.7431,-197.3576 647.0872,-607.3446 511.5914,-1039.6518 -98.7726,-317.182 -360.8999,-609.6942 -776.2513,-866.964 -168.42,-104.5526 -222.8715,-123.3486 -289.9862,-101.0283 -138.0284,44.6404 -419.1505,232.6 -596.4347,398.2395 -105.1041,96.3294 -239.3335,258.4446 -257.062,307.784 -3.7989,10.5727 -21.5273,8.2231 -65.8483,-11.7476 -116.501,-52.8636 -258.3284,-7.0484 -320.3779,104.5526 -16.462,29.3688 -64.5821,182.086 -107.6367,339.5022 l -78.5116,285.4638 -39.2558,-138.6204 c -22.7937,-77.5333 -84.8431,-285.4636 -139.2948,-462.8506 -53.1852,-177.3869 -130.4304,-434.6567 -170.9524,-572.1023 -43.0548,-145.6686 -87.3759,-271.3667 -106.3706,-303.085 -107.6368,-167.9889 -371.0304,-160.9405 -455.8735,14.097 -11.3969,24.6698 -48.1201,142.1445 -82.3105,261.9688 -178.5506,633.1891 -274.7906,963.2934 -281.1221,963.2934 -5.0652,0 -11.3969,-14.097 -15.1957,-31.7182 -2.5327,-18.796 -49.3863,-189.1345 -102.5716,-379.4437 -53.1852,-190.309 -122.8327,-441.7051 -154.4905,-558.0052 -63.3158,-227.9011 -83.5768,-276.0658 -140.561,-325.4052 -139.2948,-123.3485 -357.101,-66.9606 -425.4821,109.2516 -20.261,50.5141 -411.5524,1330.9895 -424.2156,1382.6783 -7.5979,32.8929 -27.8589,34.0678 -27.8589,0 0,-43.4657 -138.0284,-525.1123 -164.621,-572.1022 -45.5875,-83.4071 -146.8927,-142.1446 -246.9316,-142.1446 -20.261,0 -68.381,12.9223 -105.1042,29.3687 l -68.381,29.3688 h -674.9461 -673.6798 l -7.5979,44.6404 c -5.0653,23.495 -11.3969,81.0576 -15.1958,125.698 -3.799,45.8152 -10.1305,102.2031 -13.9295,126.8728 l -5.0653,43.4657 h 757.2566 758.5231 l 86.1095,308.9587 c 154.4904,555.6558 160.8219,572.1022 265.9261,619.0921 120.3,54.0385 267.1926,8.2233 334.3073,-105.7273 36.7232,-59.912 203.8768,-586.1992 395.0904,-1235.8348 37.9896,-128.0476 70.9137,-232.6 74.7126,-232.6 3.799,0 30.3917,93.9797 59.5168,209.105 30.3917,113.9506 79.778,298.386 111.4359,407.6376 31.6578,110.4263 91.1746,321.8808 132.963,472.2486 41.7884,149.1931 84.8432,290.1628 94.9737,312.483 24.0601,54.0384 96.24,110.4263 153.2242,120.999 88.6421,15.2718 195.0126,-35.2424 239.3336,-113.9504 16.4621,-29.3688 217.8063,-735.3923 329.242,-1154.7773 32.9242,-122.1738 63.3157,-232.6001 68.3811,-245.5224 7.5979,-17.6212 22.7937,27.0193 56.9842,151.5425 25.3263,96.3293 68.3811,246.6971 96.24,333.6284 243.1325,780.0327 296.3178,940.9732 324.1767,984.4388 49.3863,76.3586 119.0336,113.9506 215.2736,113.9506 67.1147,0 87.3757,-4.699 134.2294,-35.2424 29.1253,-19.9708 68.3811,-59.9122 84.8431,-88.1062 17.7285,-29.3686 75.979,-216.1535 141.8274,-456.9769 108.9031,-399.4143 111.4358,-405.288 111.4358,-318.3567 2.5326,237.2991 136.762,451.1032 338.1062,536.8598 132.9631,56.3879 302.6495,54.0384 440.6778,-5.8737 206.4094,-89.2809 331.7747,-274.891 345.7041,-507.4911 l 7.5979,-112.7759 -40.5221,-31.7181 c -46.8537,-36.4172 -64.5821,-38.7668 -113.9684,-14.097 -41.7884,19.9707 -59.5168,55.2131 -75.9789,157.4162 -29.1253,169.1637 -100.039,272.5415 -222.8715,325.4052 -79.778,35.2425 -148.1589,35.2425 -227.9369,0 -105.1041,-44.6404 -169.6862,-125.698 -196.2788,-247.8718 -31.6579,-140.9697 2.5326,-291.3375 102.5716,-448.7537 87.3757,-136.2708 360.8999,-365.3467 572.3745,-479.2972 l 59.5168,-31.7182 92.4411,50.5142 c 419.1503,229.0758 719.2672,610.8689 718.0008,913.9539 -1.2663,276.0657 -216.5399,530.9861 -531.8525,628.4901 -141.8274,44.6405 -320.3778,46.9899 -474.8682,7.0484 -83.5769,-22.3201 -129.1642,-25.8444 -259.5947,-24.6695 -108.9031,2.3494 -177.2842,-2.3496 -217.8062,-14.097 -34.1906,-9.398 -60.7832,-12.9223 -60.7832,-8.2233 0,17.6213 138.0284,126.8727 212.741,169.1637 92.4409,51.6889 272.2578,108.0768 395.0904,123.3485 125.3652,15.2717 307.7147,4.699 429.281,-23.495 z"
       id="path2"
       style="fill:#347af0;fill-opacity:1;stroke-width:1.21967"
       sodipodi:nodetypes="ccccccsccccccccccscsccccscsccccccccccccccscccccccccccscccccccccccccccccccccccsccc" />
  </g>
</svg>
