<?xml version="1.0" standalone="no"?>
<!DOCTYPE svg PUBLIC "-//W3C//DTD SVG 20010904//EN"
 "http://www.w3.org/TR/2001/REC-SVG-20010904/DTD/svg10.dtd">
<svg version="1.0" xmlns="http://www.w3.org/2000/svg"
 width="1080.000000pt" height="1080.000000pt" viewBox="0 0 1080.000000 1080.000000"
 preserveAspectRatio="xMidYMid meet">

<g transform="translate(0.000000,1080.000000) scale(0.100000,-0.100000)"
fill="#000000" stroke="none">
<path d="M7885 6569 c-221 -26 -450 -123 -585 -249 -44 -41 -45 -41 -15 -35
17 3 127 10 245 15 135 5 237 15 275 24 169 44 369 39 528 -14 142 -48 228
-101 337 -210 103 -102 161 -195 196 -315 25 -86 23 -220 -6 -310 -98 -309
-364 -598 -749 -815 l-94 -53 -61 33 c-208 113 -516 366 -608 498 -84 121
-131 258 -132 382 -1 156 57 282 161 348 113 72 219 79 331 23 120 -61 184
-156 222 -328 26 -118 33 -136 66 -162 36 -29 78 -26 125 7 l39 27 -6 90 c-18
245 -116 422 -295 528 -101 60 -184 81 -314 81 -92 0 -122 -5 -182 -26 -223
-79 -367 -283 -389 -550 -4 -43 -11 -78 -16 -78 -13 0 -19 19 -103 326 -42
153 -97 341 -121 416 -43 133 -46 138 -100 187 -64 59 -114 76 -194 67 -138
-14 -193 -67 -255 -246 -63 -181 -303 -955 -366 -1180 -62 -220 -85 -276 -99
-249 -5 8 -54 183 -110 389 -121 447 -214 774 -275 965 -49 154 -74 192 -150
226 -99 44 -189 26 -259 -51 -43 -48 -64 -118 -361 -1180 -53 -190 -100 -349
-105 -354 -5 -5 -26 48 -48 120 -22 71 -106 341 -186 599 -173 560 -249 785
-282 842 -26 45 -87 92 -143 111 -75 26 -183 9 -253 -40 -51 -35 -92 -147
-214 -583 -41 -148 -82 -294 -90 -322 l-15 -53 -802 0 -802 0 17 -152 c9 -84
17 -161 17 -170 1 -17 42 -18 711 -18 l709 0 78 -32 c57 -23 93 -31 134 -31
112 2 221 78 260 183 30 80 146 488 154 543 5 35 12 47 24 47 14 0 36 -59 110
-307 203 -674 354 -1160 371 -1199 92 -212 393 -225 496 -22 29 57 81 237 249
853 65 237 122 434 127 440 6 6 12 5 18 -4 4 -8 77 -255 161 -550 189 -667
211 -738 248 -788 68 -94 220 -125 334 -69 69 33 109 80 142 166 14 36 120
380 235 765 116 385 214 709 219 720 11 25 7 37 76 -215 63 -231 109 -378 135
-430 57 -112 196 -158 335 -110 32 11 59 20 60 20 2 0 31 -39 66 -87 133 -185
399 -421 631 -561 221 -134 281 -144 413 -74 120 65 347 220 463 318 244 205
423 468 488 721 35 132 37 309 5 428 -43 163 -147 331 -272 437 -127 108 -329
210 -499 252 -73 17 -258 37 -335 35 -27 -1 -81 -5 -120 -10z"/>
</g>
</svg>
