<?xml version="1.0" encoding="UTF-8" standalone="no"?>
<svg
   version="1.1"
   id="Layer_1"
   x="0px"
   y="0px"
   width="192"
   viewBox="0 0 192 192"
   enable-background="new 0 0 1080 1080"
   xml:space="preserve"
   sodipodi:docname="Copy-of-swasthAILogo-_1_.svg"
   inkscape:version="1.2.2 (732a01da63, 2022-12-09)"
   height="192"
   xmlns:inkscape="http://www.inkscape.org/namespaces/inkscape"
   xmlns:sodipodi="http://sodipodi.sourceforge.net/DTD/sodipodi-0.dtd"
   xmlns="http://www.w3.org/2000/svg"
   xmlns:svg="http://www.w3.org/2000/svg"><defs
   id="defs1611" /><sodipodi:namedview
   id="namedview1609"
   pagecolor="#ffffff"
   bordercolor="#000000"
   borderopacity="0.25"
   inkscape:showpageshadow="2"
   inkscape:pageopacity="0.0"
   inkscape:pagecheckerboard="0"
   inkscape:deskcolor="#d1d1d1"
   showgrid="false"
   inkscape:zoom="2.9795302"
   inkscape:cx="36.415137"
   inkscape:cy="94.477981"
   inkscape:window-width="1920"
   inkscape:window-height="991"
   inkscape:window-x="-9"
   inkscape:window-y="-9"
   inkscape:window-maximized="1"
   inkscape:current-layer="Layer_1" />











<g
   id="g463"
   transform="translate(-15.103052,16.445546)"><path
     fill="#ffffff"
     opacity="1"
     stroke="none"
     d="m 72.931303,86.010716 c 0.367,-1.611107 0.734,-3.222214 1.10101,-4.833331 0.0715,0.0027 0.14304,0.0054 0.21455,0.0081 0.95583,4.18846 1.91166,8.376933 2.86969,12.575083 h 6.61321 c 1.34086,-6.33017 2.68225,-12.662826 4.04322,-19.087892 -1.30596,0 -2.49822,-0.0254 -3.68715,0.02602 -0.1891,0.0082 -0.48132,0.337788 -0.52634,0.559329 -0.5383,2.649475 -1.03928,5.306523 -1.54919,7.961764 -0.44455,2.314909 -0.88804,4.630026 -1.3272,6.920042 -0.58111,0.191973 -0.84186,0.05063 -0.93106,-0.527367 -0.10372,-0.672164 -0.31449,-1.327568 -0.47366,-1.991473 -0.94837,-3.955638 -1.88829,-7.913344 -2.85871,-11.863553 -0.0628,-0.255586 -0.34799,-0.640451 -0.54426,-0.649484 -1.27677,-0.05878 -2.55755,-0.03018 -3.84614,-0.03018 -0.0509,0.159275 -0.0911,0.26222 -0.11672,0.368697 -1.13086,4.701678 -2.27073,9.401279 -3.37672,14.108815 -0.13314,0.566701 -0.31749,0.820262 -0.9459,0.572674 -1.00031,-5.137711 -2.00412,-10.293473 -2.9976,-15.396151 h -4.07937 c 1.35282,6.385481 2.69032,12.698663 4.02844,19.014726 h 6.61771 c 0.29545,-1.278773 0.58416,-2.523005 0.8702,-3.767852 0.29307,-1.275443 0.58353,-2.55149 0.90199,-3.96796 M 47.349763,67.261707 c -0.422,0.06468 -0.85039,0.101934 -1.26497,0.19851 -2.59632,0.604809 -4.66641,1.875416 -5.4152,4.611393 -0.45844,1.675125 -0.39626,3.381891 0.0853,5.063708 0.34248,1.196095 0.9598,2.25823 2.04798,2.837942 1.44354,0.769012 2.96421,1.411833 4.49649,1.990323 1.43204,0.540669 2.95053,0.855148 4.37427,1.413736 0.61651,0.241863 1.26464,0.743335 1.59809,1.305128 1.17355,1.977167 -8.6e-4,4.881498 -2.21508,5.468737 -0.97143,0.257642 -2.03185,0.317496 -3.04148,0.265517 -2.29872,-0.118327 -4.59102,-0.36132 -6.96125,-0.559967 -0.13326,1.089702 -0.26618,2.176565 -0.40419,3.305059 3.41959,0.718463 6.78901,1.264133 10.22583,0.937387 3.86975,-0.367908 6.33309,-2.599377 6.91111,-6.285835 0.17004,-1.084439 0.15034,-2.223637 0.044,-3.32091 -0.1888,-1.948075 -1.18991,-3.422664 -2.97433,-4.286321 -0.8929,-0.432169 -1.81134,-0.824813 -2.74746,-1.151592 -1.82319,-0.636452 -3.68988,-1.15322 -5.49521,-1.834395 -1.54181,-0.581747 -2.09581,-1.563762 -1.99798,-3.103933 0.097,-1.5279 0.8582,-2.564046 2.43487,-2.88352 1.21182,-0.245551 2.48647,-0.313835 3.72523,-0.263849 2.06784,0.08343 4.12933,0.324433 6.24386,0.50336 0.11715,-1.121404 0.23175,-2.218374 0.35361,-3.384767 -3.29418,-0.574772 -6.54443,-1.118031 -10.02346,-0.825711 M 151.76233,78.059152 c 1.26604,0.240174 1.944,1.082059 2.08217,2.284784 0.17824,1.551588 0.28391,3.117689 0.30926,4.679344 0.0471,2.903213 0.0135,5.807722 0.0135,8.70986 h 4.11273 c 0,-4.01049 0.0555,-7.969835 -0.0312,-11.926079 -0.0289,-1.31956 -0.32508,-2.657246 -0.67132,-3.940154 -0.50307,-1.863945 -1.80644,-2.98727 -3.69903,-3.381932 -1.49795,-0.312374 -3.0041,-0.335648 -4.48243,0.104319 -0.96868,0.28829 -1.91651,0.64664 -2.94672,0.998572 v -8.80865 h -4.09997 v 26.959083 h 4.13895 V 92.85403 c 0,-4.445852 0.0101,-8.891746 -0.0131,-13.337474 -0.003,-0.540179 0.11483,-0.882421 0.67575,-0.950502 1.48693,-0.180477 2.97523,-0.349646 4.61138,-0.506911 M 91.915093,93.037558 c 0.74421,0.33723 1.45817,0.835003 2.23824,0.982004 2.47849,0.467054 4.87433,-0.008 7.174147,-0.971823 0.44285,-0.185606 0.75015,-0.16754 1.15795,0.08542 1.37027,0.850041 2.89344,1.080493 4.53148,1.025444 0.0466,-1.064527 0.0907,-2.073576 0.13366,-3.054578 -1.4933,-0.534186 -1.69035,-0.816742 -1.69276,-2.347521 -0.005,-2.936146 0.0349,-5.873119 -0.0228,-8.808212 -0.0664,-3.38212 -1.57023,-5.169327 -4.91509,-5.535973 -1.790567,-0.196265 -3.637277,-0.0038 -5.447677,0.145919 -1.28715,0.106451 -2.55597,0.434477 -3.86352,0.66909 0.061,1.061916 0.11462,1.994489 0.16894,2.939676 2.11682,-0.10991 4.16176,-0.253517 6.20916,-0.31383 3.274487,-0.09645 3.856677,0.513061 3.749347,3.777605 -0.003,0.104481 -0.0483,0.207605 -0.0706,0.297687 -1.997667,0.190741 -3.960077,0.321923 -5.905537,0.580599 -1.74563,0.232102 -3.40312,0.72549 -4.47152,2.322897 -1.16884,1.747571 -1.15278,6.443934 1.02652,8.205593 M 111.38716,76.025419 c -3.11433,3.057702 -1.95928,8.026285 2.16443,9.298594 0.35241,0.108721 0.71369,0.191317 1.07425,0.270528 1.5268,0.335424 3.06854,0.613606 4.57781,1.014385 1.04078,0.276386 1.46519,1.143677 1.24772,2.196499 -0.20509,0.992917 -0.92999,1.432624 -1.82786,1.5266 -1.07099,0.112083 -2.16118,0.163687 -3.23473,0.100377 -1.72913,-0.101975 -3.45144,-0.31952 -5.28121,-0.498462 v 3.492855 c 1.70293,0.229732 3.4414,0.524422 5.19219,0.684328 1.93417,0.176667 3.87473,0.16541 5.74717,-0.490538 1.4002,-0.490516 2.61913,-1.271786 3.08114,-2.735068 1.05402,-3.338348 0.80217,-7.216172 -3.97169,-8.171875 -0.13962,-0.02797 -0.28018,-0.05158 -0.41929,-0.08182 -1.47234,-0.319855 -2.95483,-0.600251 -4.41333,-0.974152 -1.13133,-0.290022 -1.52845,-0.837793 -1.484,-1.775033 0.0435,-0.916598 0.53541,-1.55567 1.62409,-1.661572 1.40747,-0.136903 2.83794,-0.133343 4.25301,-0.06914 1.40286,0.06365 2.79891,0.277722 4.26409,0.432824 v -3.604077 c -2.35716,-0.228091 -4.69935,-0.538132 -7.05119,-0.656573 -1.96855,-0.09914 -3.85006,0.349281 -5.5426,1.701318 m 64.89795,13.056653 c 0.47185,1.664465 0.94372,3.328928 1.41977,5.008179 h 2.61798 c -2.18156,-7.949684 -4.34552,-15.83517 -6.51788,-23.751365 -1.72661,0 -3.37774,0.03081 -5.02665,-0.01624 -0.6001,-0.01712 -0.82586,0.170944 -0.98106,0.745831 -1.48999,5.519323 -3.01347,11.029609 -4.52664,16.542662 -0.58598,2.134944 -1.17019,4.270367 -1.773,6.470562 h 2.61281 c 0.4982,-1.750987 1.03428,-3.514784 1.48892,-5.299319 0.15576,-0.611329 0.39732,-0.811971 1.03243,-0.803762 2.79268,0.03612 5.58683,0.05102 8.37875,-0.0071 0.78589,-0.01635 1.15957,0.226337 1.27457,1.110533 m -37.8175,-14.409585 h -4.84862 v -5.471083 h -4.12876 v 5.500325 h -2.38975 v 3.539426 h 2.41596 c 0,0.360641 -2e-5,0.66805 0,0.975468 1.7e-4,2.563854 -0.0428,5.12873 0.0181,7.691142 0.0323,1.358518 0.15866,2.728167 0.39774,4.065048 0.30092,1.682791 1.39747,2.66726 3.08195,3.012447 2.02335,0.414657 3.99892,0.128403 6.02053,-0.294303 -0.0431,-0.904277 -0.0792,-1.755079 -0.12734,-2.605193 -0.0126,-0.223143 -0.0627,-0.444176 -0.10227,-0.711843 -0.93868,0.04301 -1.8467,0.09566 -2.75548,0.123914 -1.7429,0.05417 -2.28647,-0.392603 -2.347,-2.145165 -0.0747,-2.162698 -0.0467,-4.32904 -0.0577,-6.493827 -0.006,-1.187469 -0.001,-2.375002 -0.001,-3.626187 h 5.25288 c 0,-1.139167 0.007,-2.214898 -0.0119,-3.290185 -0.002,-0.09038 -0.17149,-0.177866 -0.41721,-0.269984 m 45.62061,7.392645 v 12.00667 h 2.56564 V 70.39541 h -2.56569 c 0,3.869389 0,7.684001 5e-5,11.669701 z"
     id="path1586"
     sodipodi:nodetypes="ccccccscscssscccscccccsccsssscssssccsssssssssccccssccsssscccccsssccsscccssssccsscssccssssssccsssscssssccscccccsssccssscccccccccsssscscsssccsccccccc"
     style="stroke-width:0.171079" /><path
     fill="#0c0e11"
     opacity="1"
     stroke="none"
     d="m 72.917873,86.081062 c -0.30503,1.346124 -0.59549,2.622171 -0.88856,3.897613 -0.28604,1.244848 -0.57475,2.48908 -0.8702,3.767853 -2.19559,0 -4.38133,0 -6.61771,0 -1.33812,-6.316063 -2.67562,-12.629245 -4.02844,-19.014727 1.36894,0 2.66391,0 4.07937,0 0.99348,5.102679 1.99729,10.258441 2.9976,15.396151 0.62841,0.247588 0.81276,-0.006 0.9459,-0.572673 1.10599,-4.707536 2.24586,-9.407137 3.37672,-14.108815 0.0256,-0.106477 0.0659,-0.209422 0.11672,-0.368697 1.28859,0 2.56937,-0.0286 3.84614,0.03018 0.19627,0.009 0.48148,0.393898 0.54426,0.649484 0.97042,3.950208 1.91034,7.907915 2.85871,11.863553 0.15917,0.663905 0.36994,1.319309 0.47366,1.991473 0.0892,0.577999 0.34995,0.71934 0.93106,0.527366 0.43916,-2.290015 0.88265,-4.605133 1.3272,-6.920042 0.50991,-2.655241 1.01089,-5.312288 1.54919,-7.961763 0.045,-0.221542 0.33724,-0.551143 0.52634,-0.559329 1.18893,-0.05142 2.38119,-0.02602 3.68715,-0.02602 -1.36097,6.425067 -2.70236,12.757723 -4.04322,19.087893 -2.22949,0 -4.39173,0 -6.61321,0 -0.95803,-4.198151 -1.91386,-8.386623 -2.86969,-12.575083 -0.0715,-0.0027 -0.14304,-0.0054 -0.21455,-0.0081 -0.36701,1.611117 -0.73401,3.222224 -1.11444,4.903677 z"
     id="path1588"
     style="stroke-width:0.171079" /><path
     fill="#0c0e11"
     opacity="1"
     stroke="none"
     d="m 47.426303,67.257229 c 3.40249,-0.287851 6.65274,0.255408 9.94692,0.83018 -0.12186,1.166393 -0.23646,2.263363 -0.35361,3.384767 -2.11453,-0.178927 -4.17602,-0.419925 -6.24386,-0.50336 -1.23876,-0.04999 -2.51341,0.0183 -3.72523,0.263849 -1.57667,0.319474 -2.33782,1.35562 -2.43487,2.88352 -0.0978,1.540171 0.45617,2.522186 1.99798,3.103933 1.80533,0.681175 3.67202,1.197943 5.49521,1.834395 0.93612,0.326779 1.85456,0.719423 2.74746,1.151592 1.78442,0.863657 2.78553,2.338246 2.97433,4.286321 0.10635,1.097273 0.12605,2.236471 -0.044,3.32091 -0.57802,3.686458 -3.04136,5.917927 -6.91111,6.285835 -3.43682,0.326746 -6.80624,-0.218924 -10.22583,-0.937387 0.13801,-1.128494 0.27093,-2.215357 0.40419,-3.305059 2.37023,0.198647 4.66253,0.44164 6.96125,0.559967 1.00963,0.05198 2.07005,-0.0079 3.04148,-0.265517 2.21418,-0.587239 3.38863,-3.49157 2.21508,-5.468737 -0.33345,-0.561793 -0.98158,-1.063265 -1.59809,-1.305128 -1.42374,-0.558588 -2.94223,-0.873067 -4.37427,-1.413736 -1.53228,-0.57849 -3.05295,-1.221311 -4.49649,-1.990323 -1.08818,-0.579712 -1.7055,-1.641847 -2.04798,-2.837942 -0.48154,-1.681817 -0.54372,-3.388583 -0.0853,-5.063708 0.74879,-2.735977 2.81888,-4.006584 5.4152,-4.611393 0.41458,-0.09658 0.84297,-0.133828 1.34151,-0.202979 z"
     id="path1590"
     style="stroke-width:0.171079" /><path
     fill="#0d0f12"
     opacity="1"
     stroke="none"
     d="m 151.68811,78.050935 c -1.56196,0.165473 -3.05026,0.334642 -4.53719,0.515119 -0.56091,0.06808 -0.67855,0.410323 -0.67574,0.950502 0.0231,4.445728 0.0131,8.891622 0.0131,13.337474 0,0.279279 0,0.558546 0,0.884269 -1.40612,0 -2.75543,0 -4.13896,0 0,-8.993806 0,-17.959211 0,-26.959083 1.36929,0 2.69986,0 4.09998,0 0,2.926604 0,5.849563 0,8.808641 1.0302,-0.351932 1.97803,-0.710282 2.94671,-0.998572 1.47833,-0.439967 2.98448,-0.416693 4.48243,-0.104319 1.89259,0.394662 3.19596,1.517987 3.69903,3.381932 0.34624,1.282908 0.6424,2.620594 0.67132,3.940154 0.0867,3.956244 0.0312,7.915589 0.0312,11.926079 -1.34849,0 -2.70089,0 -4.11272,0 0,-2.902138 0.0336,-5.806647 -0.0135,-8.70986 -0.0253,-1.561655 -0.13101,-3.127756 -0.30926,-4.679344 -0.13816,-1.202725 -0.81612,-2.04461 -2.15636,-2.292992 z"
     id="path1592"
     style="stroke-width:0.171079" /><path
     fill="#0c0e11"
     opacity="1"
     stroke="none"
     d="m 91.869473,92.99676 c -2.13368,-1.720861 -2.14973,-6.417224 -0.9809,-8.164795 1.06841,-1.597407 2.72589,-2.090795 4.47153,-2.322897 1.94546,-0.258676 3.90786,-0.389858 5.905527,-0.580599 0.0222,-0.09008 0.0671,-0.193206 0.0706,-0.297687 0.10733,-3.264544 -0.47486,-3.874056 -3.749347,-3.777605 -2.04739,0.06031 -4.09234,0.20392 -6.20916,0.31383 -0.0543,-0.945187 -0.10791,-1.87776 -0.16894,-2.939676 1.30755,-0.234613 2.57637,-0.562639 3.86353,-0.66909 1.8104,-0.149715 3.6571,-0.342184 5.447677,-0.145919 3.34486,0.366646 4.84868,2.153853 4.91509,5.535973 0.0576,2.935093 0.0181,5.872066 0.0228,8.808212 0.002,1.530779 0.19945,1.813335 1.69276,2.347521 -0.0429,0.981002 -0.0871,1.990051 -0.13366,3.054578 -1.63805,0.05505 -3.16122,-0.175403 -4.53149,-1.025444 -0.4078,-0.252963 -0.7151,-0.271029 -1.15794,-0.08542 -2.299827,0.963846 -4.695657,1.438877 -7.174157,0.971823 -0.78006,-0.147001 -1.49403,-0.644774 -2.28386,-1.022802 m 4.08332,-7.481407 c -1.65112,0.716793 -2.28933,3.161775 -1.14229,4.529566 0.25449,0.30345 0.67813,0.584786 1.05915,0.642174 1.89215,0.285063 3.69666,-0.142208 5.425947,-0.712876 0,-1.764622 0,-3.409447 0,-5.11999 -1.773757,0.205266 -3.495957,0.404571 -5.342807,0.661126 z"
     id="path1594"
     style="stroke-width:0.171079" /><path
     fill="#0c0e11"
     opacity="1"
     stroke="none"
     d="m 111.43648,75.989034 c 1.64328,-1.315649 3.52479,-1.764074 5.49334,-1.66493 2.35184,0.118441 4.69404,0.428482 7.05119,0.656573 0,1.294379 0,2.393041 0,3.604077 -1.46518,-0.155102 -2.86122,-0.36917 -4.26409,-0.432824 -1.41507,-0.06421 -2.84554,-0.06777 -4.25301,0.06914 -1.08868,0.105902 -1.58063,0.744974 -1.62409,1.661572 -0.0445,0.93724 0.35268,1.485011 1.484,1.775033 1.4585,0.373901 2.94099,0.654297 4.41334,0.974152 0.1391,0.03024 0.27966,0.05385 0.41928,0.08182 4.77386,0.955703 5.02571,4.833527 3.97169,8.171875 -0.462,1.463282 -1.68093,2.244552 -3.08113,2.735068 -1.87245,0.655948 -3.81301,0.667205 -5.74717,0.490538 -1.75079,-0.159906 -3.48927,-0.454596 -5.1922,-0.684328 0,-1.220392 0,-2.345274 0,-3.492855 1.82977,0.178942 3.55208,0.396487 5.28121,0.498462 1.07355,0.06331 2.16374,0.0117 3.23473,-0.100377 0.89787,-0.09398 1.62277,-0.533683 1.82786,-1.5266 0.21748,-1.052822 -0.20693,-1.920113 -1.24772,-2.196499 -1.50926,-0.400779 -3.051,-0.678961 -4.5778,-1.014385 -0.36057,-0.07921 -0.72185,-0.161807 -1.07425,-0.270528 -4.12371,-1.272309 -5.27877,-6.240892 -2.11518,-9.334982 z"
     id="path1596"
     style="stroke-width:0.171079" /><path
     fill="#377cf0"
     opacity="1"
     stroke="none"
     d="m 176.27174,89.013335 c -0.10157,-0.815457 -0.47525,-1.058147 -1.26113,-1.041793 -2.79193,0.05811 -5.58608,0.04321 -8.37875,0.0071 -0.63512,-0.0082 -0.87668,0.192434 -1.03243,0.803763 -0.45465,1.784535 -0.99073,3.548332 -1.48893,5.299318 -0.89234,0 -1.70805,0 -2.6128,0 0.60281,-2.200195 1.18702,-4.335617 1.77299,-6.470561 1.51318,-5.513054 3.03665,-11.023339 4.52665,-16.542663 0.15519,-0.574886 0.38096,-0.762951 0.98105,-0.745831 1.64892,0.04704 3.30005,0.01624 5.02665,0.01624 2.17237,7.916195 4.33632,15.801681 6.51789,23.751365 -0.93421,0 -1.75245,0 -2.61799,0 -0.47604,-1.679252 -0.94791,-3.343715 -1.4332,-5.076919 m -2.49756,-9.236058 c -0.66196,-2.397409 -1.32391,-4.794819 -1.97409,-7.149595 -1.77365,-0.08853 -1.76584,-0.08637 -2.20437,1.502354 -0.94512,3.42393 -1.90065,6.844986 -2.84719,10.268519 -0.10177,0.368127 -0.17233,0.7449 -0.26693,1.159568 2.99606,0 5.88744,0 8.79476,0 0,-0.135452 0.0184,-0.224552 -0.003,-0.303002 -0.48032,-1.783314 -0.96496,-3.565478 -1.4995,-5.477844 z"
     id="path1598"
     style="stroke-width:0.171079" /><path
     fill="#0d0e11"
     opacity="1"
     stroke="none"
     d="m 138.54462,74.67411 c 0.16871,0.09047 0.33864,0.17796 0.3402,0.26834 0.0185,1.075287 0.0119,2.151018 0.0119,3.290185 -1.77298,0 -3.47161,0 -5.25288,0 0,1.251185 -0.005,2.438718 10e-4,3.626187 0.011,2.164787 -0.017,4.331129 0.0577,6.493827 0.0605,1.752562 0.6041,2.199338 2.347,2.145165 0.90878,-0.02825 1.81681,-0.0809 2.75548,-0.123914 0.0396,0.267667 0.0896,0.4887 0.10228,0.711843 0.0481,0.850114 0.0842,1.700916 0.12734,2.605193 -2.02162,0.422706 -3.99719,0.70896 -6.02054,0.294303 -1.68447,-0.345187 -2.78103,-1.329656 -3.08195,-3.012447 -0.23908,-1.336881 -0.36547,-2.70653 -0.39774,-4.065048 -0.0608,-2.562412 -0.0179,-5.127288 -0.0181,-7.691142 -3e-5,-0.307418 0,-0.614827 0,-0.975468 -0.83572,0 -1.59941,0 -2.41597,0 0,-1.180181 0,-2.307191 0,-3.539426 0.76384,0 1.5432,0 2.38976,0 0,-1.884125 0,-3.665689 0,-5.500325 1.38975,0 2.71254,0 4.12875,0 0,1.778301 0,3.583387 0,5.471083 1.67723,0 3.26293,0 4.92564,0.0017 z"
     id="path1600"
     style="stroke-width:0.171079" /><path
     fill="#347af0"
     opacity="1"
     stroke="none"
     d="m 184.08823,81.979572 c -2e-5,-3.900161 -2e-5,-7.714773 -2e-5,-11.584162 0.87758,0 1.69099,0 2.56569,0 0,7.868456 0,15.745119 0,23.676371 -0.80708,0 -1.61818,0 -2.56564,0 0,-4.001092 0,-8.003885 -3e-5,-12.092209 z"
     id="path1602"
     style="stroke-width:0.171079" /><path
     fill="#fdfeff"
     opacity="1"
     stroke="none"
     d="m 96.015113,85.486722 c 1.78453,-0.227924 3.50673,-0.427229 5.280487,-0.632495 0,1.710543 0,3.355368 0,5.11999 -1.729287,0.570668 -3.533797,0.997939 -5.425947,0.712876 -0.38102,-0.05739 -0.80466,-0.338724 -1.05915,-0.642174 -1.14704,-1.367791 -0.50883,-3.812773 1.20461,-4.558197 z"
     id="path1604"
     style="stroke-width:0.171079" /><path
     fill="#fdfeff"
     opacity="1"
     stroke="none"
     d="m 173.79953,79.842269 c 0.50918,1.847374 0.99382,3.629538 1.47414,5.412852 0.0211,0.07845 0.003,0.16755 0.003,0.303002 -2.90731,0 -5.7987,0 -8.79476,0 0.0946,-0.414667 0.16516,-0.791441 0.26694,-1.159568 0.94653,-3.423533 1.90207,-6.844589 2.84718,-10.268519 0.43854,-1.588723 0.43073,-1.59088 2.20437,-1.502353 0.65018,2.354775 1.31214,4.752186 1.99944,7.214586 z"
     id="path1606"
     style="stroke-width:0.171079" /></g></svg>
